<mxfile host="app.diagrams.net" modified="2024-03-12T04:29:01.394Z" agent="Mozilla/5.0 (X11; Ubuntu; Linux x86_64; rv:123.0) Gecko/20100101 Firefox/123.0" etag="EcS9AO-CUTftd-M5KUOS" version="24.0.5" type="device">
  <diagram name="Página-1" id="cdOEOxVooXw0BNgElxy4">
    <mxGraphModel dx="2774" dy="1645" grid="1" gridSize="10" guides="1" tooltips="1" connect="1" arrows="1" fold="1" page="1" pageScale="1" pageWidth="1100" pageHeight="850" math="0" shadow="0">
      <root>
        <mxCell id="0" />
        <mxCell id="1" parent="0" />
        <mxCell id="-9nmRn1ZaEQCNh8CwRWG-28" style="edgeStyle=none;rounded=0;orthogonalLoop=1;jettySize=auto;html=1;exitX=1;exitY=0.5;exitDx=0;exitDy=0;entryX=0;entryY=0.5;entryDx=0;entryDy=0;endArrow=none;endFill=0;" parent="1" source="-9nmRn1ZaEQCNh8CwRWG-2" target="-9nmRn1ZaEQCNh8CwRWG-5" edge="1">
          <mxGeometry relative="1" as="geometry" />
        </mxCell>
        <mxCell id="-9nmRn1ZaEQCNh8CwRWG-29" style="edgeStyle=none;rounded=0;orthogonalLoop=1;jettySize=auto;html=1;entryX=0.5;entryY=1;entryDx=0;entryDy=0;endArrow=none;endFill=0;" parent="1" source="-9nmRn1ZaEQCNh8CwRWG-2" target="-9nmRn1ZaEQCNh8CwRWG-4" edge="1">
          <mxGeometry relative="1" as="geometry" />
        </mxCell>
        <mxCell id="-9nmRn1ZaEQCNh8CwRWG-36" style="edgeStyle=none;rounded=0;orthogonalLoop=1;jettySize=auto;html=1;exitX=0.75;exitY=0;exitDx=0;exitDy=0;entryX=0.5;entryY=0;entryDx=0;entryDy=0;endArrow=none;endFill=0;" parent="1" source="-9nmRn1ZaEQCNh8CwRWG-2" target="-9nmRn1ZaEQCNh8CwRWG-15" edge="1">
          <mxGeometry relative="1" as="geometry" />
        </mxCell>
        <mxCell id="-9nmRn1ZaEQCNh8CwRWG-38" style="edgeStyle=none;rounded=0;orthogonalLoop=1;jettySize=auto;html=1;exitX=0.25;exitY=0;exitDx=0;exitDy=0;entryX=0.5;entryY=1;entryDx=0;entryDy=0;endArrow=none;endFill=0;" parent="1" source="-9nmRn1ZaEQCNh8CwRWG-2" target="-9nmRn1ZaEQCNh8CwRWG-18" edge="1">
          <mxGeometry relative="1" as="geometry" />
        </mxCell>
        <mxCell id="-9GYW8I7CgRAuRYNKEKt-5" style="edgeStyle=orthogonalEdgeStyle;rounded=0;orthogonalLoop=1;jettySize=auto;html=1;exitX=0.5;exitY=1;exitDx=0;exitDy=0;entryX=0.5;entryY=1;entryDx=0;entryDy=0;endArrow=none;endFill=0;fillColor=#f8cecc;strokeColor=#b85450;entryPerimeter=0;" parent="1" source="-9nmRn1ZaEQCNh8CwRWG-2" target="uMp9pkGPk3w4n4KLQbn3-5" edge="1">
          <mxGeometry relative="1" as="geometry">
            <mxPoint x="450" y="270" as="targetPoint" />
          </mxGeometry>
        </mxCell>
        <mxCell id="-9nmRn1ZaEQCNh8CwRWG-2" value="Persona" style="whiteSpace=wrap;html=1;align=center;" parent="1" vertex="1">
          <mxGeometry x="560" y="170" width="100" height="40" as="geometry" />
        </mxCell>
        <mxCell id="-9nmRn1ZaEQCNh8CwRWG-35" style="edgeStyle=none;rounded=0;orthogonalLoop=1;jettySize=auto;html=1;exitX=0.5;exitY=1;exitDx=0;exitDy=0;entryX=0.5;entryY=0;entryDx=0;entryDy=0;endArrow=none;endFill=0;" parent="1" source="-9nmRn1ZaEQCNh8CwRWG-3" target="-9nmRn1ZaEQCNh8CwRWG-2" edge="1">
          <mxGeometry relative="1" as="geometry" />
        </mxCell>
        <mxCell id="-9nmRn1ZaEQCNh8CwRWG-3" value="&lt;u&gt;Licencia&lt;/u&gt;" style="ellipse;whiteSpace=wrap;html=1;align=center;" parent="1" vertex="1">
          <mxGeometry x="565" y="20" width="100" height="40" as="geometry" />
        </mxCell>
        <mxCell id="-9nmRn1ZaEQCNh8CwRWG-30" style="edgeStyle=none;rounded=0;orthogonalLoop=1;jettySize=auto;html=1;exitX=1;exitY=0;exitDx=0;exitDy=0;entryX=0;entryY=1;entryDx=0;entryDy=0;endArrow=none;endFill=0;" parent="1" source="-9nmRn1ZaEQCNh8CwRWG-4" target="-9nmRn1ZaEQCNh8CwRWG-7" edge="1">
          <mxGeometry relative="1" as="geometry" />
        </mxCell>
        <mxCell id="-9nmRn1ZaEQCNh8CwRWG-4" value="NombreC" style="ellipse;whiteSpace=wrap;html=1;align=center;" parent="1" vertex="1">
          <mxGeometry x="675" y="10" width="100" height="40" as="geometry" />
        </mxCell>
        <mxCell id="-9nmRn1ZaEQCNh8CwRWG-21" style="edgeStyle=none;rounded=0;orthogonalLoop=1;jettySize=auto;html=1;exitX=1;exitY=0;exitDx=0;exitDy=0;entryX=0.269;entryY=0.947;entryDx=0;entryDy=0;endArrow=none;endFill=0;entryPerimeter=0;" parent="1" source="-9nmRn1ZaEQCNh8CwRWG-5" target="-9nmRn1ZaEQCNh8CwRWG-11" edge="1">
          <mxGeometry relative="1" as="geometry" />
        </mxCell>
        <mxCell id="-9nmRn1ZaEQCNh8CwRWG-23" style="edgeStyle=none;rounded=0;orthogonalLoop=1;jettySize=auto;html=1;exitX=1;exitY=1;exitDx=0;exitDy=0;entryX=0;entryY=0.5;entryDx=0;entryDy=0;endArrow=none;endFill=0;" parent="1" source="-9nmRn1ZaEQCNh8CwRWG-5" target="-9nmRn1ZaEQCNh8CwRWG-10" edge="1">
          <mxGeometry relative="1" as="geometry" />
        </mxCell>
        <mxCell id="-9nmRn1ZaEQCNh8CwRWG-5" value="Dirección" style="ellipse;whiteSpace=wrap;html=1;align=center;" parent="1" vertex="1">
          <mxGeometry x="755" y="180" width="100" height="40" as="geometry" />
        </mxCell>
        <mxCell id="-9nmRn1ZaEQCNh8CwRWG-6" value="Nombre " style="ellipse;whiteSpace=wrap;html=1;align=center;" parent="1" vertex="1">
          <mxGeometry x="585" y="-50" width="100" height="40" as="geometry" />
        </mxCell>
        <mxCell id="-9nmRn1ZaEQCNh8CwRWG-7" value="Materno " style="ellipse;whiteSpace=wrap;html=1;align=center;" parent="1" vertex="1">
          <mxGeometry x="805" y="-50" width="100" height="40" as="geometry" />
        </mxCell>
        <mxCell id="-9nmRn1ZaEQCNh8CwRWG-8" value="Paterno" style="ellipse;whiteSpace=wrap;html=1;align=center;" parent="1" vertex="1">
          <mxGeometry x="695" y="-70" width="100" height="40" as="geometry" />
        </mxCell>
        <mxCell id="-9nmRn1ZaEQCNh8CwRWG-9" value="Calle" style="ellipse;whiteSpace=wrap;html=1;align=center;" parent="1" vertex="1">
          <mxGeometry x="760" y="90" width="100" height="40" as="geometry" />
        </mxCell>
        <mxCell id="-9nmRn1ZaEQCNh8CwRWG-10" value="Municipio" style="ellipse;whiteSpace=wrap;html=1;align=center;" parent="1" vertex="1">
          <mxGeometry x="905" y="210" width="100" height="40" as="geometry" />
        </mxCell>
        <mxCell id="-9nmRn1ZaEQCNh8CwRWG-11" value="NumExt" style="ellipse;whiteSpace=wrap;html=1;align=center;" parent="1" vertex="1">
          <mxGeometry x="875" y="80" width="100" height="40" as="geometry" />
        </mxCell>
        <mxCell id="-9nmRn1ZaEQCNh8CwRWG-12" value="Colonia " style="ellipse;whiteSpace=wrap;html=1;align=center;" parent="1" vertex="1">
          <mxGeometry x="905" y="140" width="100" height="40" as="geometry" />
        </mxCell>
        <mxCell id="-9nmRn1ZaEQCNh8CwRWG-13" value="Estado " style="ellipse;whiteSpace=wrap;html=1;align=center;" parent="1" vertex="1">
          <mxGeometry x="875" y="260" width="100" height="40" as="geometry" />
        </mxCell>
        <mxCell id="-9nmRn1ZaEQCNh8CwRWG-14" value="C.P." style="ellipse;whiteSpace=wrap;html=1;align=center;" parent="1" vertex="1">
          <mxGeometry x="755" y="265" width="100" height="40" as="geometry" />
        </mxCell>
        <mxCell id="-9nmRn1ZaEQCNh8CwRWG-15" value="Sexo" style="ellipse;whiteSpace=wrap;html=1;align=center;" parent="1" vertex="1">
          <mxGeometry x="665" y="130" width="100" height="40" as="geometry" />
        </mxCell>
        <mxCell id="-9nmRn1ZaEQCNh8CwRWG-16" value="Nacimiento" style="ellipse;whiteSpace=wrap;html=1;align=center;" parent="1" vertex="1">
          <mxGeometry x="660" y="240" width="100" height="40" as="geometry" />
        </mxCell>
        <mxCell id="-9nmRn1ZaEQCNh8CwRWG-18" value="Teléfono" style="ellipse;shape=doubleEllipse;margin=3;whiteSpace=wrap;html=1;align=center;" parent="1" vertex="1">
          <mxGeometry x="485" y="60" width="100" height="40" as="geometry" />
        </mxCell>
        <mxCell id="-9nmRn1ZaEQCNh8CwRWG-19" style="edgeStyle=none;rounded=0;orthogonalLoop=1;jettySize=auto;html=1;entryX=0.5;entryY=1;entryDx=0;entryDy=0;endArrow=none;endFill=0;" parent="1" source="-9nmRn1ZaEQCNh8CwRWG-5" target="-9nmRn1ZaEQCNh8CwRWG-9" edge="1">
          <mxGeometry relative="1" as="geometry" />
        </mxCell>
        <mxCell id="-9nmRn1ZaEQCNh8CwRWG-22" style="edgeStyle=none;rounded=0;orthogonalLoop=1;jettySize=auto;html=1;exitX=1;exitY=0.5;exitDx=0;exitDy=0;entryX=0;entryY=1;entryDx=0;entryDy=0;endArrow=none;endFill=0;" parent="1" source="-9nmRn1ZaEQCNh8CwRWG-5" target="-9nmRn1ZaEQCNh8CwRWG-12" edge="1">
          <mxGeometry relative="1" as="geometry" />
        </mxCell>
        <mxCell id="-9nmRn1ZaEQCNh8CwRWG-24" style="edgeStyle=none;rounded=0;orthogonalLoop=1;jettySize=auto;html=1;exitX=0.672;exitY=0.955;exitDx=0;exitDy=0;entryX=0;entryY=0;entryDx=0;entryDy=0;exitPerimeter=0;endArrow=none;endFill=0;" parent="1" source="-9nmRn1ZaEQCNh8CwRWG-5" target="-9nmRn1ZaEQCNh8CwRWG-13" edge="1">
          <mxGeometry relative="1" as="geometry" />
        </mxCell>
        <mxCell id="-9nmRn1ZaEQCNh8CwRWG-26" style="edgeStyle=none;rounded=0;orthogonalLoop=1;jettySize=auto;html=1;exitX=0.5;exitY=1;exitDx=0;exitDy=0;entryX=0.5;entryY=0;entryDx=0;entryDy=0;endArrow=none;endFill=0;" parent="1" source="-9nmRn1ZaEQCNh8CwRWG-5" target="-9nmRn1ZaEQCNh8CwRWG-14" edge="1">
          <mxGeometry relative="1" as="geometry" />
        </mxCell>
        <mxCell id="-9nmRn1ZaEQCNh8CwRWG-31" style="edgeStyle=none;rounded=0;orthogonalLoop=1;jettySize=auto;html=1;exitX=0.5;exitY=0;exitDx=0;exitDy=0;entryX=0.455;entryY=0.99;entryDx=0;entryDy=0;entryPerimeter=0;endArrow=none;endFill=0;" parent="1" source="-9nmRn1ZaEQCNh8CwRWG-4" target="-9nmRn1ZaEQCNh8CwRWG-8" edge="1">
          <mxGeometry relative="1" as="geometry" />
        </mxCell>
        <mxCell id="-9nmRn1ZaEQCNh8CwRWG-32" style="edgeStyle=none;rounded=0;orthogonalLoop=1;jettySize=auto;html=1;exitX=0;exitY=0;exitDx=0;exitDy=0;entryX=1;entryY=1;entryDx=0;entryDy=0;endArrow=none;endFill=0;" parent="1" source="-9nmRn1ZaEQCNh8CwRWG-4" target="-9nmRn1ZaEQCNh8CwRWG-6" edge="1">
          <mxGeometry relative="1" as="geometry" />
        </mxCell>
        <mxCell id="-9nmRn1ZaEQCNh8CwRWG-37" style="edgeStyle=none;rounded=0;orthogonalLoop=1;jettySize=auto;html=1;exitX=1;exitY=0.75;exitDx=0;exitDy=0;endArrow=none;endFill=0;" parent="1" source="-9nmRn1ZaEQCNh8CwRWG-2" target="-9nmRn1ZaEQCNh8CwRWG-16" edge="1">
          <mxGeometry relative="1" as="geometry" />
        </mxCell>
        <mxCell id="-9nmRn1ZaEQCNh8CwRWG-47" style="edgeStyle=none;rounded=0;orthogonalLoop=1;jettySize=auto;html=1;exitX=0.5;exitY=1;exitDx=0;exitDy=0;entryX=0.5;entryY=1;entryDx=0;entryDy=0;endArrow=none;endFill=0;" parent="1" source="-9nmRn1ZaEQCNh8CwRWG-40" target="-9nmRn1ZaEQCNh8CwRWG-43" edge="1">
          <mxGeometry relative="1" as="geometry" />
        </mxCell>
        <mxCell id="-9nmRn1ZaEQCNh8CwRWG-50" style="edgeStyle=none;rounded=0;orthogonalLoop=1;jettySize=auto;html=1;entryX=1;entryY=0.5;entryDx=0;entryDy=0;endArrow=none;endFill=0;" parent="1" source="-9nmRn1ZaEQCNh8CwRWG-40" target="-9nmRn1ZaEQCNh8CwRWG-42" edge="1">
          <mxGeometry relative="1" as="geometry" />
        </mxCell>
        <mxCell id="-9nmRn1ZaEQCNh8CwRWG-58" style="edgeStyle=orthogonalEdgeStyle;rounded=0;orthogonalLoop=1;jettySize=auto;html=1;exitX=0.5;exitY=1;exitDx=0;exitDy=0;entryX=0;entryY=0.5;entryDx=0;entryDy=0;endArrow=none;endFill=0;" parent="1" source="-9nmRn1ZaEQCNh8CwRWG-40" target="-9nmRn1ZaEQCNh8CwRWG-56" edge="1">
          <mxGeometry relative="1" as="geometry">
            <Array as="points">
              <mxPoint x="130" y="410" />
              <mxPoint x="130" y="620" />
            </Array>
          </mxGeometry>
        </mxCell>
        <mxCell id="-9nmRn1ZaEQCNh8CwRWG-40" value="Vehículo" style="whiteSpace=wrap;html=1;align=center;" parent="1" vertex="1">
          <mxGeometry x="60" y="370" width="100" height="40" as="geometry" />
        </mxCell>
        <mxCell id="-9nmRn1ZaEQCNh8CwRWG-41" value="Año" style="ellipse;whiteSpace=wrap;html=1;align=center;" parent="1" vertex="1">
          <mxGeometry x="-160" y="440" width="100" height="40" as="geometry" />
        </mxCell>
        <mxCell id="-9nmRn1ZaEQCNh8CwRWG-42" value="&lt;u&gt;NumMotor&lt;/u&gt;" style="ellipse;whiteSpace=wrap;html=1;align=center;" parent="1" vertex="1">
          <mxGeometry x="-190" y="385" width="100" height="40" as="geometry" />
        </mxCell>
        <mxCell id="-9nmRn1ZaEQCNh8CwRWG-43" value="Placa" style="ellipse;whiteSpace=wrap;html=1;align=center;" parent="1" vertex="1">
          <mxGeometry x="-10" y="530" width="100" height="40" as="geometry" />
        </mxCell>
        <mxCell id="-9nmRn1ZaEQCNh8CwRWG-44" value="Marca" style="ellipse;whiteSpace=wrap;html=1;align=center;" parent="1" vertex="1">
          <mxGeometry x="-190" y="260" width="100" height="40" as="geometry" />
        </mxCell>
        <mxCell id="-9nmRn1ZaEQCNh8CwRWG-45" value="Modelo" style="ellipse;whiteSpace=wrap;html=1;align=center;" parent="1" vertex="1">
          <mxGeometry x="-200" y="330" width="100" height="40" as="geometry" />
        </mxCell>
        <mxCell id="-9nmRn1ZaEQCNh8CwRWG-46" value="Color" style="ellipse;whiteSpace=wrap;html=1;align=center;" parent="1" vertex="1">
          <mxGeometry x="-100" y="500" width="100" height="40" as="geometry" />
        </mxCell>
        <mxCell id="-9nmRn1ZaEQCNh8CwRWG-48" style="edgeStyle=none;rounded=0;orthogonalLoop=1;jettySize=auto;html=1;exitX=0.25;exitY=0;exitDx=0;exitDy=0;entryX=0.627;entryY=1.067;entryDx=0;entryDy=0;entryPerimeter=0;endArrow=none;endFill=0;" parent="1" source="-9nmRn1ZaEQCNh8CwRWG-40" target="-9nmRn1ZaEQCNh8CwRWG-44" edge="1">
          <mxGeometry relative="1" as="geometry" />
        </mxCell>
        <mxCell id="-9nmRn1ZaEQCNh8CwRWG-49" style="edgeStyle=none;rounded=0;orthogonalLoop=1;jettySize=auto;html=1;exitX=0;exitY=0.25;exitDx=0;exitDy=0;entryX=0.972;entryY=0.645;entryDx=0;entryDy=0;entryPerimeter=0;endArrow=none;endFill=0;" parent="1" source="-9nmRn1ZaEQCNh8CwRWG-40" target="-9nmRn1ZaEQCNh8CwRWG-45" edge="1">
          <mxGeometry relative="1" as="geometry" />
        </mxCell>
        <mxCell id="-9nmRn1ZaEQCNh8CwRWG-51" style="edgeStyle=none;rounded=0;orthogonalLoop=1;jettySize=auto;html=1;entryX=0.931;entryY=0.192;entryDx=0;entryDy=0;entryPerimeter=0;endArrow=none;endFill=0;" parent="1" source="-9nmRn1ZaEQCNh8CwRWG-40" target="-9nmRn1ZaEQCNh8CwRWG-41" edge="1">
          <mxGeometry relative="1" as="geometry" />
        </mxCell>
        <mxCell id="-9nmRn1ZaEQCNh8CwRWG-52" style="edgeStyle=none;rounded=0;orthogonalLoop=1;jettySize=auto;html=1;entryX=0.579;entryY=0.024;entryDx=0;entryDy=0;entryPerimeter=0;endArrow=none;endFill=0;" parent="1" source="-9nmRn1ZaEQCNh8CwRWG-40" target="-9nmRn1ZaEQCNh8CwRWG-46" edge="1">
          <mxGeometry relative="1" as="geometry" />
        </mxCell>
        <mxCell id="-9nmRn1ZaEQCNh8CwRWG-54" style="edgeStyle=orthogonalEdgeStyle;rounded=0;orthogonalLoop=1;jettySize=auto;html=1;entryX=0;entryY=0.5;entryDx=0;entryDy=0;endArrow=none;endFill=0;fillColor=#f8cecc;strokeColor=#b85450;exitX=0.5;exitY=0;exitDx=0;exitDy=0;" parent="1" source="-9nmRn1ZaEQCNh8CwRWG-53" target="-9nmRn1ZaEQCNh8CwRWG-2" edge="1">
          <mxGeometry relative="1" as="geometry">
            <Array as="points">
              <mxPoint x="270" y="190" />
            </Array>
          </mxGeometry>
        </mxCell>
        <mxCell id="-9nmRn1ZaEQCNh8CwRWG-55" style="edgeStyle=orthogonalEdgeStyle;rounded=0;orthogonalLoop=1;jettySize=auto;html=1;exitX=0;exitY=0.5;exitDx=0;exitDy=0;endArrow=none;endFill=0;shape=link;entryX=0.83;entryY=-0.025;entryDx=0;entryDy=0;entryPerimeter=0;" parent="1" source="-9nmRn1ZaEQCNh8CwRWG-53" target="-9nmRn1ZaEQCNh8CwRWG-40" edge="1">
          <mxGeometry relative="1" as="geometry" />
        </mxCell>
        <mxCell id="-9nmRn1ZaEQCNh8CwRWG-53" value="Manejar" style="shape=rhombus;perimeter=rhombusPerimeter;whiteSpace=wrap;html=1;align=center;" parent="1" vertex="1">
          <mxGeometry x="210" y="280" width="120" height="60" as="geometry" />
        </mxCell>
        <mxCell id="-9nmRn1ZaEQCNh8CwRWG-59" style="edgeStyle=orthogonalEdgeStyle;rounded=0;orthogonalLoop=1;jettySize=auto;html=1;endArrow=none;endFill=0;exitX=1;exitY=0;exitDx=0;exitDy=0;entryX=0.75;entryY=1;entryDx=0;entryDy=0;" parent="1" source="-9nmRn1ZaEQCNh8CwRWG-56" target="-9nmRn1ZaEQCNh8CwRWG-2" edge="1">
          <mxGeometry relative="1" as="geometry">
            <mxPoint x="220" y="580" as="sourcePoint" />
            <mxPoint x="620" y="230" as="targetPoint" />
            <Array as="points">
              <mxPoint x="630" y="605" />
              <mxPoint x="630" y="210" />
            </Array>
          </mxGeometry>
        </mxCell>
        <mxCell id="-9nmRn1ZaEQCNh8CwRWG-61" style="edgeStyle=none;rounded=0;orthogonalLoop=1;jettySize=auto;html=1;endArrow=none;endFill=0;" parent="1" source="-9nmRn1ZaEQCNh8CwRWG-56" target="-9nmRn1ZaEQCNh8CwRWG-60" edge="1">
          <mxGeometry relative="1" as="geometry" />
        </mxCell>
        <mxCell id="-9nmRn1ZaEQCNh8CwRWG-56" value="Participar" style="shape=rhombus;perimeter=rhombusPerimeter;whiteSpace=wrap;html=1;align=center;" parent="1" vertex="1">
          <mxGeometry x="280" y="590" width="120" height="60" as="geometry" />
        </mxCell>
        <mxCell id="-9nmRn1ZaEQCNh8CwRWG-57" style="edgeStyle=none;rounded=0;orthogonalLoop=1;jettySize=auto;html=1;exitX=0.5;exitY=1;exitDx=0;exitDy=0;" parent="1" source="-9nmRn1ZaEQCNh8CwRWG-46" target="-9nmRn1ZaEQCNh8CwRWG-46" edge="1">
          <mxGeometry relative="1" as="geometry" />
        </mxCell>
        <mxCell id="-9nmRn1ZaEQCNh8CwRWG-60" value="MontoDaño" style="ellipse;whiteSpace=wrap;html=1;align=center;" parent="1" vertex="1">
          <mxGeometry x="290" y="710" width="100" height="40" as="geometry" />
        </mxCell>
        <mxCell id="-9nmRn1ZaEQCNh8CwRWG-80" style="edgeStyle=none;rounded=0;orthogonalLoop=1;jettySize=auto;html=1;exitX=0.75;exitY=0;exitDx=0;exitDy=0;entryX=0.5;entryY=1;entryDx=0;entryDy=0;endArrow=none;endFill=0;" parent="1" source="-9nmRn1ZaEQCNh8CwRWG-62" target="-9nmRn1ZaEQCNh8CwRWG-65" edge="1">
          <mxGeometry relative="1" as="geometry" />
        </mxCell>
        <mxCell id="-9nmRn1ZaEQCNh8CwRWG-62" value="Accidente" style="whiteSpace=wrap;html=1;align=center;" parent="1" vertex="1">
          <mxGeometry x="595" y="660" width="100" height="40" as="geometry" />
        </mxCell>
        <mxCell id="-9nmRn1ZaEQCNh8CwRWG-63" style="edgeStyle=orthogonalEdgeStyle;rounded=0;orthogonalLoop=1;jettySize=auto;html=1;entryX=0;entryY=0.5;entryDx=0;entryDy=0;endArrow=none;endFill=0;shape=link;exitX=1;exitY=0.5;exitDx=0;exitDy=0;" parent="1" source="-9nmRn1ZaEQCNh8CwRWG-56" target="-9nmRn1ZaEQCNh8CwRWG-62" edge="1">
          <mxGeometry relative="1" as="geometry">
            <mxPoint x="330" y="610" as="sourcePoint" />
            <Array as="points">
              <mxPoint x="530" y="620" />
              <mxPoint x="530" y="680" />
            </Array>
          </mxGeometry>
        </mxCell>
        <mxCell id="-9nmRn1ZaEQCNh8CwRWG-64" value="&lt;u&gt;NúmeroReporte&lt;/u&gt;" style="ellipse;whiteSpace=wrap;html=1;align=center;" parent="1" vertex="1">
          <mxGeometry x="480" y="720" width="100" height="40" as="geometry" />
        </mxCell>
        <mxCell id="-9nmRn1ZaEQCNh8CwRWG-65" value="Fecha" style="ellipse;whiteSpace=wrap;html=1;align=center;" parent="1" vertex="1">
          <mxGeometry x="550" y="760" width="100" height="40" as="geometry" />
        </mxCell>
        <mxCell id="-9nmRn1ZaEQCNh8CwRWG-73" style="edgeStyle=none;rounded=0;orthogonalLoop=1;jettySize=auto;html=1;exitX=1;exitY=0;exitDx=0;exitDy=0;entryX=0;entryY=0.5;entryDx=0;entryDy=0;endArrow=none;endFill=0;" parent="1" source="-9nmRn1ZaEQCNh8CwRWG-66" target="-9nmRn1ZaEQCNh8CwRWG-67" edge="1">
          <mxGeometry relative="1" as="geometry" />
        </mxCell>
        <mxCell id="-9nmRn1ZaEQCNh8CwRWG-66" value="Ubicación" style="ellipse;whiteSpace=wrap;html=1;align=center;" parent="1" vertex="1">
          <mxGeometry x="745" y="670" width="100" height="40" as="geometry" />
        </mxCell>
        <mxCell id="-9nmRn1ZaEQCNh8CwRWG-67" value="Calle2" style="ellipse;whiteSpace=wrap;html=1;align=center;" parent="1" vertex="1">
          <mxGeometry x="885" y="630" width="100" height="40" as="geometry" />
        </mxCell>
        <mxCell id="-9nmRn1ZaEQCNh8CwRWG-68" value="Calle1" style="ellipse;whiteSpace=wrap;html=1;align=center;" parent="1" vertex="1">
          <mxGeometry x="785" y="590" width="100" height="40" as="geometry" />
        </mxCell>
        <mxCell id="-9nmRn1ZaEQCNh8CwRWG-69" value="C.P." style="ellipse;whiteSpace=wrap;html=1;align=center;" parent="1" vertex="1">
          <mxGeometry x="685" y="750" width="100" height="40" as="geometry" />
        </mxCell>
        <mxCell id="-9nmRn1ZaEQCNh8CwRWG-70" value="Estado " style="ellipse;whiteSpace=wrap;html=1;align=center;" parent="1" vertex="1">
          <mxGeometry x="805" y="750" width="100" height="40" as="geometry" />
        </mxCell>
        <mxCell id="-9nmRn1ZaEQCNh8CwRWG-71" value="Colonia" style="ellipse;whiteSpace=wrap;html=1;align=center;" parent="1" vertex="1">
          <mxGeometry x="885" y="690" width="100" height="40" as="geometry" />
        </mxCell>
        <mxCell id="-9nmRn1ZaEQCNh8CwRWG-72" style="edgeStyle=none;rounded=0;orthogonalLoop=1;jettySize=auto;html=1;exitX=0.5;exitY=0;exitDx=0;exitDy=0;entryX=0.5;entryY=1;entryDx=0;entryDy=0;endArrow=none;endFill=0;" parent="1" source="-9nmRn1ZaEQCNh8CwRWG-66" target="-9nmRn1ZaEQCNh8CwRWG-68" edge="1">
          <mxGeometry relative="1" as="geometry" />
        </mxCell>
        <mxCell id="-9nmRn1ZaEQCNh8CwRWG-74" style="edgeStyle=none;rounded=0;orthogonalLoop=1;jettySize=auto;html=1;exitX=1;exitY=0.5;exitDx=0;exitDy=0;entryX=0.1;entryY=0.25;entryDx=0;entryDy=0;entryPerimeter=0;endArrow=none;endFill=0;" parent="1" source="-9nmRn1ZaEQCNh8CwRWG-66" target="-9nmRn1ZaEQCNh8CwRWG-71" edge="1">
          <mxGeometry relative="1" as="geometry" />
        </mxCell>
        <mxCell id="-9nmRn1ZaEQCNh8CwRWG-75" style="edgeStyle=none;rounded=0;orthogonalLoop=1;jettySize=auto;html=1;entryX=0.5;entryY=0;entryDx=0;entryDy=0;endArrow=none;endFill=0;" parent="1" source="-9nmRn1ZaEQCNh8CwRWG-66" target="-9nmRn1ZaEQCNh8CwRWG-70" edge="1">
          <mxGeometry relative="1" as="geometry">
            <mxPoint x="819.4999999999995" y="719.36" as="sourcePoint" />
            <mxPoint x="865.0000000000005" y="750.0000000000001" as="targetPoint" />
          </mxGeometry>
        </mxCell>
        <mxCell id="-9nmRn1ZaEQCNh8CwRWG-76" style="edgeStyle=none;rounded=0;orthogonalLoop=1;jettySize=auto;html=1;exitX=0.5;exitY=1;exitDx=0;exitDy=0;entryX=0.5;entryY=0;entryDx=0;entryDy=0;endArrow=none;endFill=0;" parent="1" source="-9nmRn1ZaEQCNh8CwRWG-66" target="-9nmRn1ZaEQCNh8CwRWG-69" edge="1">
          <mxGeometry relative="1" as="geometry" />
        </mxCell>
        <mxCell id="-9nmRn1ZaEQCNh8CwRWG-77" style="edgeStyle=none;rounded=0;orthogonalLoop=1;jettySize=auto;html=1;exitX=1;exitY=0.5;exitDx=0;exitDy=0;endArrow=none;endFill=0;entryX=0.023;entryY=0.312;entryDx=0;entryDy=0;entryPerimeter=0;" parent="1" source="-9nmRn1ZaEQCNh8CwRWG-62" target="-9nmRn1ZaEQCNh8CwRWG-66" edge="1">
          <mxGeometry relative="1" as="geometry">
            <mxPoint x="870" y="680" as="targetPoint" />
          </mxGeometry>
        </mxCell>
        <mxCell id="-9nmRn1ZaEQCNh8CwRWG-81" style="edgeStyle=none;rounded=0;orthogonalLoop=1;jettySize=auto;html=1;exitX=0.25;exitY=1;exitDx=0;exitDy=0;entryX=0.5;entryY=0;entryDx=0;entryDy=0;endArrow=none;endFill=0;" parent="1" source="-9nmRn1ZaEQCNh8CwRWG-62" target="-9nmRn1ZaEQCNh8CwRWG-64" edge="1">
          <mxGeometry relative="1" as="geometry" />
        </mxCell>
        <mxCell id="-9GYW8I7CgRAuRYNKEKt-2" style="rounded=0;orthogonalLoop=1;jettySize=auto;html=1;exitX=1;exitY=0.5;exitDx=0;exitDy=0;entryX=0.5;entryY=1;entryDx=0;entryDy=0;endArrow=none;endFill=0;fillColor=#f8cecc;strokeColor=#b85450;" parent="1" source="aw4Vh0Jx20UhqFJmnJDm-1" target="aw4Vh0Jx20UhqFJmnJDm-2" edge="1">
          <mxGeometry relative="1" as="geometry" />
        </mxCell>
        <mxCell id="-9GYW8I7CgRAuRYNKEKt-58" style="edgeStyle=orthogonalEdgeStyle;rounded=0;orthogonalLoop=1;jettySize=auto;html=1;exitX=0;exitY=0.5;exitDx=0;exitDy=0;endArrow=none;endFill=0;fillColor=#f8cecc;strokeColor=#b85450;" parent="1" source="aw4Vh0Jx20UhqFJmnJDm-1" target="-9GYW8I7CgRAuRYNKEKt-59" edge="1">
          <mxGeometry relative="1" as="geometry">
            <mxPoint x="310" y="390" as="targetPoint" />
          </mxGeometry>
        </mxCell>
        <mxCell id="-9GYW8I7CgRAuRYNKEKt-61" style="edgeStyle=orthogonalEdgeStyle;rounded=0;orthogonalLoop=1;jettySize=auto;html=1;fillColor=#f8cecc;strokeColor=#b85450;endArrow=none;endFill=0;entryX=0.5;entryY=0;entryDx=0;entryDy=0;" parent="1" source="aw4Vh0Jx20UhqFJmnJDm-1" target="-9nmRn1ZaEQCNh8CwRWG-56" edge="1">
          <mxGeometry relative="1" as="geometry">
            <Array as="points">
              <mxPoint x="470" y="550" />
              <mxPoint x="340" y="550" />
            </Array>
          </mxGeometry>
        </mxCell>
        <mxCell id="aw4Vh0Jx20UhqFJmnJDm-1" value="Agente" style="whiteSpace=wrap;html=1;align=center;fillColor=#f8cecc;strokeColor=#b85450;" parent="1" vertex="1">
          <mxGeometry x="400" y="370" width="100" height="40" as="geometry" />
        </mxCell>
        <mxCell id="aw4Vh0Jx20UhqFJmnJDm-2" value="IdAgente" style="ellipse;whiteSpace=wrap;html=1;align=center;fillColor=#f8cecc;strokeColor=#b85450;" parent="1" vertex="1">
          <mxGeometry x="485" y="310" width="100" height="40" as="geometry" />
        </mxCell>
        <mxCell id="-9GYW8I7CgRAuRYNKEKt-57" style="rounded=0;orthogonalLoop=1;jettySize=auto;html=1;exitX=0.5;exitY=0;exitDx=0;exitDy=0;entryX=0.5;entryY=0;entryDx=0;entryDy=0;endArrow=none;endFill=0;exitPerimeter=0;fillColor=#f8cecc;strokeColor=#b85450;" parent="1" source="uMp9pkGPk3w4n4KLQbn3-5" target="aw4Vh0Jx20UhqFJmnJDm-1" edge="1">
          <mxGeometry relative="1" as="geometry">
            <mxPoint x="450" y="330" as="sourcePoint" />
          </mxGeometry>
        </mxCell>
        <mxCell id="-9GYW8I7CgRAuRYNKEKt-7" value="Dueño" style="whiteSpace=wrap;html=1;align=center;fillColor=#f8cecc;strokeColor=#b85450;" parent="1" vertex="1">
          <mxGeometry x="280" y="-130" width="100" height="40" as="geometry" />
        </mxCell>
        <mxCell id="-9GYW8I7CgRAuRYNKEKt-24" style="rounded=0;orthogonalLoop=1;jettySize=auto;html=1;exitX=0.5;exitY=1;exitDx=0;exitDy=0;entryX=0.5;entryY=0;entryDx=0;entryDy=0;endArrow=none;endFill=0;fillColor=#f8cecc;strokeColor=#b85450;" parent="1" source="-9GYW8I7CgRAuRYNKEKt-8" target="-9GYW8I7CgRAuRYNKEKt-7" edge="1">
          <mxGeometry relative="1" as="geometry" />
        </mxCell>
        <mxCell id="-9GYW8I7CgRAuRYNKEKt-8" value="IdDueño" style="ellipse;whiteSpace=wrap;html=1;align=center;fillColor=#f8cecc;strokeColor=#b85450;" parent="1" vertex="1">
          <mxGeometry x="280" y="-200" width="100" height="40" as="geometry" />
        </mxCell>
        <mxCell id="-9GYW8I7CgRAuRYNKEKt-10" value="Póliza" style="whiteSpace=wrap;html=1;align=center;fillColor=#f8cecc;strokeColor=#b85450;" parent="1" vertex="1">
          <mxGeometry x="-130" y="-80" width="100" height="40" as="geometry" />
        </mxCell>
        <mxCell id="-9GYW8I7CgRAuRYNKEKt-16" style="rounded=0;orthogonalLoop=1;jettySize=auto;html=1;exitX=1;exitY=0.5;exitDx=0;exitDy=0;entryX=0;entryY=0.5;entryDx=0;entryDy=0;endArrow=none;endFill=0;fillColor=#f8cecc;strokeColor=#b85450;" parent="1" source="-9GYW8I7CgRAuRYNKEKt-11" target="-9GYW8I7CgRAuRYNKEKt-10" edge="1">
          <mxGeometry relative="1" as="geometry" />
        </mxCell>
        <mxCell id="-9GYW8I7CgRAuRYNKEKt-11" value="IdPoliza" style="ellipse;whiteSpace=wrap;html=1;align=center;fillColor=#f8cecc;strokeColor=#b85450;" parent="1" vertex="1">
          <mxGeometry x="-280" y="-90" width="100" height="40" as="geometry" />
        </mxCell>
        <mxCell id="-9GYW8I7CgRAuRYNKEKt-17" style="rounded=0;orthogonalLoop=1;jettySize=auto;html=1;exitX=1;exitY=1;exitDx=0;exitDy=0;entryX=0.25;entryY=0;entryDx=0;entryDy=0;endArrow=none;endFill=0;fillColor=#f8cecc;strokeColor=#b85450;" parent="1" source="-9GYW8I7CgRAuRYNKEKt-12" target="-9GYW8I7CgRAuRYNKEKt-10" edge="1">
          <mxGeometry relative="1" as="geometry" />
        </mxCell>
        <mxCell id="-9GYW8I7CgRAuRYNKEKt-12" value="TipoSeguro" style="ellipse;whiteSpace=wrap;html=1;align=center;fillColor=#f8cecc;strokeColor=#b85450;" parent="1" vertex="1">
          <mxGeometry x="-250" y="-160" width="100" height="40" as="geometry" />
        </mxCell>
        <mxCell id="-9GYW8I7CgRAuRYNKEKt-19" style="rounded=0;orthogonalLoop=1;jettySize=auto;html=1;exitX=0;exitY=1;exitDx=0;exitDy=0;entryX=1;entryY=0;entryDx=0;entryDy=0;endArrow=none;endFill=0;fillColor=#f8cecc;strokeColor=#b85450;" parent="1" source="-9GYW8I7CgRAuRYNKEKt-13" target="-9GYW8I7CgRAuRYNKEKt-10" edge="1">
          <mxGeometry relative="1" as="geometry" />
        </mxCell>
        <mxCell id="-9GYW8I7CgRAuRYNKEKt-13" value="Estatus" style="ellipse;whiteSpace=wrap;html=1;align=center;fillColor=#f8cecc;strokeColor=#b85450;" parent="1" vertex="1">
          <mxGeometry x="-20" y="-180" width="100" height="40" as="geometry" />
        </mxCell>
        <mxCell id="-9GYW8I7CgRAuRYNKEKt-14" value="Cobertura" style="ellipse;whiteSpace=wrap;html=1;align=center;fillColor=#f8cecc;strokeColor=#b85450;" parent="1" vertex="1">
          <mxGeometry x="-150" y="-200" width="100" height="40" as="geometry" />
        </mxCell>
        <mxCell id="-9GYW8I7CgRAuRYNKEKt-20" style="rounded=0;orthogonalLoop=1;jettySize=auto;html=1;exitX=0;exitY=0.5;exitDx=0;exitDy=0;entryX=1;entryY=0.5;entryDx=0;entryDy=0;endArrow=none;endFill=0;fillColor=#f8cecc;strokeColor=#b85450;" parent="1" source="-9GYW8I7CgRAuRYNKEKt-15" target="-9GYW8I7CgRAuRYNKEKt-10" edge="1">
          <mxGeometry relative="1" as="geometry" />
        </mxCell>
        <mxCell id="-9GYW8I7CgRAuRYNKEKt-15" value="FechaContratacion" style="ellipse;whiteSpace=wrap;html=1;align=center;fillColor=#f8cecc;strokeColor=#b85450;" parent="1" vertex="1">
          <mxGeometry x="10" y="-110" width="130" height="40" as="geometry" />
        </mxCell>
        <mxCell id="-9GYW8I7CgRAuRYNKEKt-18" style="rounded=0;orthogonalLoop=1;jettySize=auto;html=1;exitX=0.5;exitY=1;exitDx=0;exitDy=0;entryX=0.44;entryY=-0.075;entryDx=0;entryDy=0;entryPerimeter=0;endArrow=none;endFill=0;fillColor=#f8cecc;strokeColor=#b85450;" parent="1" source="-9GYW8I7CgRAuRYNKEKt-14" target="-9GYW8I7CgRAuRYNKEKt-10" edge="1">
          <mxGeometry relative="1" as="geometry" />
        </mxCell>
        <mxCell id="-9GYW8I7CgRAuRYNKEKt-22" style="edgeStyle=orthogonalEdgeStyle;rounded=0;orthogonalLoop=1;jettySize=auto;html=1;entryX=0.75;entryY=1;entryDx=0;entryDy=0;fillColor=#f8cecc;strokeColor=#b85450;endArrow=none;endFill=0;shape=link;" parent="1" source="-9GYW8I7CgRAuRYNKEKt-21" target="-9GYW8I7CgRAuRYNKEKt-10" edge="1">
          <mxGeometry relative="1" as="geometry" />
        </mxCell>
        <mxCell id="-9GYW8I7CgRAuRYNKEKt-23" style="edgeStyle=orthogonalEdgeStyle;rounded=0;orthogonalLoop=1;jettySize=auto;html=1;exitX=1;exitY=0.5;exitDx=0;exitDy=0;entryX=0;entryY=0.5;entryDx=0;entryDy=0;endArrow=none;endFill=0;fillColor=#f8cecc;strokeColor=#b85450;shape=link;" parent="1" source="-9GYW8I7CgRAuRYNKEKt-21" target="-9GYW8I7CgRAuRYNKEKt-7" edge="1">
          <mxGeometry relative="1" as="geometry" />
        </mxCell>
        <mxCell id="-9GYW8I7CgRAuRYNKEKt-21" value="Poseer " style="shape=rhombus;perimeter=rhombusPerimeter;whiteSpace=wrap;html=1;align=center;fillColor=#f8cecc;strokeColor=#b85450;" parent="1" vertex="1">
          <mxGeometry x="100" y="-20" width="120" height="60" as="geometry" />
        </mxCell>
        <mxCell id="-9GYW8I7CgRAuRYNKEKt-25" value="Tener " style="shape=rhombus;perimeter=rhombusPerimeter;whiteSpace=wrap;html=1;align=center;fillColor=#f8cecc;strokeColor=#b85450;" parent="1" vertex="1">
          <mxGeometry x="-50" y="120" width="120" height="60" as="geometry" />
        </mxCell>
        <mxCell id="-9GYW8I7CgRAuRYNKEKt-32" style="edgeStyle=orthogonalEdgeStyle;rounded=0;orthogonalLoop=1;jettySize=auto;html=1;entryX=0.5;entryY=1;entryDx=0;entryDy=0;fillColor=#f8cecc;strokeColor=#b85450;endArrow=none;endFill=0;" parent="1" source="-9GYW8I7CgRAuRYNKEKt-31" target="-9GYW8I7CgRAuRYNKEKt-7" edge="1">
          <mxGeometry relative="1" as="geometry">
            <Array as="points">
              <mxPoint x="290" y="150" />
              <mxPoint x="290" y="-90" />
            </Array>
          </mxGeometry>
        </mxCell>
        <mxCell id="-9GYW8I7CgRAuRYNKEKt-31" value="Tener " style="shape=rhombus;perimeter=rhombusPerimeter;whiteSpace=wrap;html=1;align=center;fillColor=#f8cecc;strokeColor=#b85450;" parent="1" vertex="1">
          <mxGeometry x="100" y="120" width="120" height="60" as="geometry" />
        </mxCell>
        <mxCell id="-9GYW8I7CgRAuRYNKEKt-33" style="edgeStyle=orthogonalEdgeStyle;rounded=0;orthogonalLoop=1;jettySize=auto;html=1;exitX=0.5;exitY=1;exitDx=0;exitDy=0;entryX=0.5;entryY=0;entryDx=0;entryDy=0;fillColor=#f8cecc;strokeColor=#b85450;endArrow=none;endFill=0;" parent="1" source="-9GYW8I7CgRAuRYNKEKt-31" target="-9nmRn1ZaEQCNh8CwRWG-40" edge="1">
          <mxGeometry relative="1" as="geometry" />
        </mxCell>
        <mxCell id="-9GYW8I7CgRAuRYNKEKt-36" value="Parentesco" style="shape=rhombus;perimeter=rhombusPerimeter;whiteSpace=wrap;html=1;align=center;fillColor=#f8cecc;strokeColor=#b85450;" parent="1" vertex="1">
          <mxGeometry x="350" y="90" width="120" height="60" as="geometry" />
        </mxCell>
        <mxCell id="-9GYW8I7CgRAuRYNKEKt-59" value="Conducir" style="shape=rhombus;perimeter=rhombusPerimeter;whiteSpace=wrap;html=1;align=center;fillColor=#f8cecc;strokeColor=#b85450;" parent="1" vertex="1">
          <mxGeometry x="210" y="360" width="120" height="60" as="geometry" />
        </mxCell>
        <mxCell id="-9GYW8I7CgRAuRYNKEKt-63" style="edgeStyle=orthogonalEdgeStyle;rounded=0;orthogonalLoop=1;jettySize=auto;html=1;entryX=0.25;entryY=1;entryDx=0;entryDy=0;endArrow=none;endFill=0;fillColor=#f8cecc;strokeColor=#b85450;" parent="1" source="-9GYW8I7CgRAuRYNKEKt-62" target="aw4Vh0Jx20UhqFJmnJDm-1" edge="1">
          <mxGeometry relative="1" as="geometry" />
        </mxCell>
        <mxCell id="-9GYW8I7CgRAuRYNKEKt-62" value="Disponer " style="shape=rhombus;perimeter=rhombusPerimeter;whiteSpace=wrap;html=1;align=center;fillColor=#f8cecc;strokeColor=#b85450;" parent="1" vertex="1">
          <mxGeometry x="210" y="450" width="120" height="60" as="geometry" />
        </mxCell>
        <mxCell id="-9GYW8I7CgRAuRYNKEKt-64" style="edgeStyle=orthogonalEdgeStyle;rounded=0;orthogonalLoop=1;jettySize=auto;html=1;exitX=0;exitY=0.5;exitDx=0;exitDy=0;entryX=0.87;entryY=1.025;entryDx=0;entryDy=0;entryPerimeter=0;endArrow=classic;endFill=1;fillColor=#f8cecc;strokeColor=#b85450;" parent="1" source="-9GYW8I7CgRAuRYNKEKt-62" target="-9nmRn1ZaEQCNh8CwRWG-40" edge="1">
          <mxGeometry relative="1" as="geometry" />
        </mxCell>
        <mxCell id="uVYDrE8Agt7B3ZwQ1b-k-2" value="" style="shape=flexArrow;endArrow=classic;html=1;rounded=0;width=4.528301886792453;endSize=2.086792452830189;endWidth=7.725169099323604;entryX=0.345;entryY=-0.075;entryDx=0;entryDy=0;entryPerimeter=0;exitX=0.559;exitY=0.959;exitDx=0;exitDy=0;exitPerimeter=0;fillColor=none;strokeColor=#b85450;" parent="1" source="-9GYW8I7CgRAuRYNKEKt-25" target="-9nmRn1ZaEQCNh8CwRWG-40" edge="1">
          <mxGeometry width="50" height="50" relative="1" as="geometry">
            <mxPoint x="-140" y="150" as="sourcePoint" />
            <mxPoint x="-90" y="210" as="targetPoint" />
          </mxGeometry>
        </mxCell>
        <mxCell id="uVYDrE8Agt7B3ZwQ1b-k-3" value="" style="shape=flexArrow;endArrow=classic;html=1;rounded=0;width=4.528301886792453;endSize=2.086792452830189;endWidth=7.725169099323604;entryX=0.25;entryY=1;entryDx=0;entryDy=0;fillColor=none;strokeColor=#b85450;exitX=0.308;exitY=0.201;exitDx=0;exitDy=0;exitPerimeter=0;" parent="1" source="-9GYW8I7CgRAuRYNKEKt-25" target="-9GYW8I7CgRAuRYNKEKt-10" edge="1">
          <mxGeometry width="50" height="50" relative="1" as="geometry">
            <mxPoint x="-200" y="160" as="sourcePoint" />
            <mxPoint x="-80" y="10" as="targetPoint" />
          </mxGeometry>
        </mxCell>
        <mxCell id="uMp9pkGPk3w4n4KLQbn3-5" value="o" style="strokeWidth=1;html=1;shape=mxgraph.flowchart.extract_or_measurement;whiteSpace=wrap;rotation=-180;fillColor=#f8cecc;strokeColor=#b85450;" parent="1" vertex="1">
          <mxGeometry x="402.5" y="270" width="97.5" height="60" as="geometry" />
        </mxCell>
        <mxCell id="uMp9pkGPk3w4n4KLQbn3-7" value="" style="shape=flexArrow;endArrow=classic;html=1;rounded=0;width=4.528301886792453;endSize=2.086792452830189;endWidth=7.725169099323604;entryX=0.5;entryY=1;entryDx=0;entryDy=0;exitX=0.373;exitY=0.121;exitDx=0;exitDy=0;exitPerimeter=0;fillColor=none;strokeColor=#b85450;" parent="1" source="-9GYW8I7CgRAuRYNKEKt-36" target="-9GYW8I7CgRAuRYNKEKt-7" edge="1">
          <mxGeometry width="50" height="50" relative="1" as="geometry">
            <mxPoint x="360" y="100" as="sourcePoint" />
            <mxPoint x="480" y="-50" as="targetPoint" />
          </mxGeometry>
        </mxCell>
        <mxCell id="uMp9pkGPk3w4n4KLQbn3-8" value="" style="shape=link;endArrow=classic;html=1;rounded=0;endWidth=7.725169099323604;entryX=0;entryY=0.25;entryDx=0;entryDy=0;fillColor=none;strokeColor=#b85450;" parent="1" source="-9GYW8I7CgRAuRYNKEKt-36" target="-9nmRn1ZaEQCNh8CwRWG-2" edge="1">
          <mxGeometry width="50" height="50" relative="1" as="geometry">
            <mxPoint x="300" y="175" as="sourcePoint" />
            <mxPoint x="420" y="25" as="targetPoint" />
          </mxGeometry>
        </mxCell>
        <mxCell id="uMp9pkGPk3w4n4KLQbn3-9" value="" style="shape=flexArrow;endArrow=classic;html=1;rounded=0;width=4.528301886792453;endSize=2.086792452830189;endWidth=7.725169099323604;fillColor=none;strokeColor=#b85450;exitX=0;exitY=0.5;exitDx=0;exitDy=0;" parent="1" source="-9GYW8I7CgRAuRYNKEKt-59" edge="1">
          <mxGeometry width="50" height="50" relative="1" as="geometry">
            <mxPoint x="200" y="390" as="sourcePoint" />
            <mxPoint x="160" y="390" as="targetPoint" />
          </mxGeometry>
        </mxCell>
      </root>
    </mxGraphModel>
  </diagram>
</mxfile>
